<?xml version="1.0" encoding="UTF-8"?>
<svg xmlns="http://www.w3.org/2000/svg" version="1.1" viewBox="0 0 16.1 16">
  <defs>
    <style>
      .cls-1 {
        opacity: .5;
      }
    </style>
  </defs>
  <!-- Generator: Adobe Illustrator 28.7.2, SVG Export Plug-In . SVG Version: 1.2.0 Build 154)  -->
  <g>
    <g id="Layer_1">
      <g id="Layer_2">
        <g id="graphicsのコピー">
          <g class="cls-1">
            <path d="M8,0C3.6,0,0,3.6,0,8.1c0,4,2.9,7.3,6.8,7.9v-5.6h-2v-2.3h2v-1.8c-.2-1.6,1-3,2.5-3.1.2,0,.3,0,.5,0,.6,0,1.2,0,1.8.2v2h-1c-.6,0-1.2.4-1.3,1,0,0,0,.2,0,.3v1.5h2.2l-.4,2.3h-1.9v5.6c4.4-.7,7.4-4.8,6.7-9.2C15.4,2.9,12,0,8,0Z"/>
          </g>
        </g>
      </g>
      <path d="M8,0C3.6,0,0,3.6,0,8.1c0,4,2.9,7.3,6.8,7.9v-5.6h-2v-2.3h2v-1.8c-.2-1.6,1-3,2.5-3.1.2,0,.3,0,.5,0,.6,0,1.2,0,1.8.2v2h-1c-.6,0-1.2.4-1.3,1,0,0,0,.2,0,.3v1.5h2.2l-.4,2.3h-1.9v5.6c4.4-.7,7.4-4.8,6.7-9.2C15.4,2.9,12,0,8,0Z"/>
    </g>
  </g>
</svg>