<svg id="Layer_1" data-name="Layer 1" xmlns="http://www.w3.org/2000/svg" width="15.44316" height="15.44316" viewBox="0 0 15.44316 15.44316"><defs><style>.cls-1{opacity:0.5;}.cls-2{fill:#3d3d3d;}</style></defs><g id="Layer_2" data-name="Layer 2"><g id="graphicsのコピー"><g class="cls-1"><path class="cls-2" d="M7.72158,1.39128c2.06176,0,2.306.00786,3.12018.045a4.27265,4.27265,0,0,1,1.43379.26587,2.3924,2.3924,0,0,1,.88783.57761,2.39226,2.39226,0,0,1,.57762.88784,4.27285,4.27285,0,0,1,.26588,1.43378c.03714.81423.045,1.05844.045,3.12019s-.00787,2.306-.045,3.12018a4.27291,4.27291,0,0,1-.26588,1.43379A2.55712,2.55712,0,0,1,12.27555,13.741a4.27266,4.27266,0,0,1-1.43379.26588c-.8141.03714-1.05829.045-3.12018.045s-2.30608-.00787-3.12017-.045a4.27272,4.27272,0,0,1-1.4338-.26588,2.39238,2.39238,0,0,1-.88783-.5776,2.3923,2.3923,0,0,1-.57762-.88785,4.27259,4.27259,0,0,1-.26587-1.43378c-.03715-.81423-.045-1.05843-.045-3.12019s.00786-2.306.045-3.12017a4.27271,4.27271,0,0,1,.26587-1.4338,2.3924,2.3924,0,0,1,.57761-.88783,2.39238,2.39238,0,0,1,.88784-.57762,4.27259,4.27259,0,0,1,1.43378-.26587c.81423-.03715,1.05844-.045,3.12019-.045M7.72158,0C5.62452,0,5.36157.00888,4.538.04646A5.66769,5.66769,0,0,0,2.66364.40537,3.78507,3.78507,0,0,0,1.296,1.296,3.78507,3.78507,0,0,0,.40537,2.66364,5.66769,5.66769,0,0,0,.04646,4.538C.00888,5.36157,0,5.62452,0,7.72158s.00888,2.36.04646,3.1836a5.66752,5.66752,0,0,0,.35891,1.87434A3.785,3.785,0,0,0,1.296,14.14717a3.78508,3.78508,0,0,0,1.36765.89062A5.66763,5.66763,0,0,0,4.538,15.3967c.82358.03759,1.08653.04646,3.18359.04646s2.36-.00887,3.1836-.04646a5.66757,5.66757,0,0,0,1.87434-.35891,3.94839,3.94839,0,0,0,2.25827-2.25827,5.66752,5.66752,0,0,0,.35891-1.87434c.03758-.82359.04646-1.08654.04646-3.1836s-.00888-2.36-.04646-3.18359a5.66763,5.66763,0,0,0-.35891-1.87435A3.78507,3.78507,0,0,0,14.14717,1.296,3.785,3.785,0,0,0,12.77952.40537,5.66752,5.66752,0,0,0,10.90518.04646C10.08159.00888,9.81864,0,7.72158,0Z"/><path class="cls-2" d="M7.72158,3.75644a3.96514,3.96514,0,1,0,3.96514,3.96514h0A3.96516,3.96516,0,0,0,7.72158,3.75644Zm0,6.539a2.57386,2.57386,0,1,1,2.57386-2.57386,2.57386,2.57386,0,0,1-2.57386,2.57386Z"/><circle class="cls-2" cx="11.84338" cy="3.59978" r="0.92659"/></g></g></g></svg>