<svg id="Layer_1" data-name="Layer 1" xmlns="http://www.w3.org/2000/svg" width="19.29649" height="19.29649" viewBox="0 0 19.29649 19.29649"><defs><style>.cls-1{fill:#5a5a5a;}</style></defs><g id="Layer_2" data-name="Layer 2"><g id="graphicsのコピー"><path class="cls-1" d="M9.64825,1.73842c2.57619,0,2.88134.00983,3.89871.05624a5.33907,5.33907,0,0,1,1.79155.33222,2.98935,2.98935,0,0,1,1.10936.72173A2.98928,2.98928,0,0,1,17.16961,3.958a5.33846,5.33846,0,0,1,.33222,1.79153c.04642,1.01739.05624,1.32253.05624,3.89873s-.00982,2.88134-.05624,3.89871a5.33852,5.33852,0,0,1-.33222,1.79155,3.19513,3.19513,0,0,1-1.8311,1.8311,5.33828,5.33828,0,0,1-1.79155.33222c-1.01723.04642-1.32234.05624-3.89871.05624s-2.88149-.00982-3.89872-.05624A5.33842,5.33842,0,0,1,3.958,17.16961a2.98936,2.98936,0,0,1-1.10937-.72172,2.98953,2.98953,0,0,1-.72174-1.10938A5.33885,5.33885,0,0,1,1.79466,13.547c-.04641-1.01738-.05624-1.32253-.05624-3.89872s.00983-2.88134.05624-3.89872A5.33888,5.33888,0,0,1,2.12688,3.958a2.98939,2.98939,0,0,1,.72173-1.10937A2.98931,2.98931,0,0,1,3.958,2.12688a5.339,5.339,0,0,1,1.79153-.33222c1.01739-.04641,1.32253-.05624,3.89873-.05624M9.64825,0c-2.62031,0-2.94888.0111-3.978.05805a7.08189,7.08189,0,0,0-2.342.44847A4.72927,4.72927,0,0,0,1.61936,1.61936,4.72935,4.72935,0,0,0,.50652,3.32827a7.08189,7.08189,0,0,0-.44847,2.342C.0111,6.69937,0,7.02793,0,9.64825s.0111,2.94887.05805,3.978a7.08189,7.08189,0,0,0,.44847,2.342,4.72939,4.72939,0,0,0,1.11284,1.7089A4.72937,4.72937,0,0,0,3.32827,18.79a7.08133,7.08133,0,0,0,2.342.44847c1.02908.047,1.35765.058,3.978.058s2.94887-.01109,3.978-.058a7.08138,7.08138,0,0,0,2.342-.44847A4.93352,4.93352,0,0,0,18.79,15.96823a7.08133,7.08133,0,0,0,.44847-2.342c.047-1.02908.058-1.35764.058-3.97795s-.01109-2.94888-.058-3.978a7.08133,7.08133,0,0,0-.44847-2.342,4.72935,4.72935,0,0,0-1.11284-1.70891A4.72953,4.72953,0,0,0,15.96823.50652a7.08189,7.08189,0,0,0-2.342-.44847C12.59712.0111,12.26856,0,9.64825,0Z"/><path class="cls-1" d="M9.64825,4.69374a4.95451,4.95451,0,1,0,4.9545,4.95452v0A4.95451,4.95451,0,0,0,9.64825,4.69374Zm0,8.17059a3.21609,3.21609,0,1,1,3.21608-3.2161v0A3.21608,3.21608,0,0,1,9.64825,12.86433Z"/><circle class="cls-1" cx="14.79851" cy="4.49799" r="1.15779"/></g></g></svg>