<?xml version="1.0" encoding="UTF-8"?>
<svg id="Layer_3" xmlns="http://www.w3.org/2000/svg" viewBox="0 0 288.46 285.46">
  <defs>
    <style>
      .cls-1 {
        fill: #111e33;
      }
    </style>
  </defs>
  <path class="cls-1" d="M144.43,7.95c35.98,0,69.81,14.01,95.26,39.46,25.44,25.44,39.46,59.28,39.46,95.26s-14.01,69.81-39.46,95.26c-25.44,25.44-59.28,39.46-95.26,39.46s-69.81-14.01-95.26-39.46c-25.44-25.44-39.46-59.28-39.46-95.26s14.01-69.81,39.46-95.26C74.61,21.96,108.44,7.95,144.43,7.95M144.43.93C66.15.93,2.69,64.39,2.69,142.67s63.46,141.73,141.73,141.73,141.73-63.46,141.73-141.73S222.7.93,144.43.93h0Z"/>
  <g>
    <path class="cls-1" d="M130.84,174.33c.95-3.54,2.59-6.86,4.78-9.69,2.18-2.84,4.89-5.19,7.9-6.91,6.02-3.48,13.25-4.31,19.54-2.54,6.32,1.73,11.65,6,14.61,11.36,3.02,5.35,3.67,11.71,2.06,17.2.59-5.71-1.22-11.37-4.64-15.45-3.4-4.12-8.31-6.59-13.21-6.99-4.92-.43-9.69,1.2-13.11,4.16-3.45,2.95-5.42,7.11-5.67,11.22-.21,3.47-3.19,6.1-6.66,5.89-3.47-.21-6.1-3.19-5.89-6.66.03-.42.09-.82.19-1.21l.1-.38Z"/>
    <g>
      <path class="cls-1" d="M170.1,116.96c2.97.94,5.92,2.06,8.75,3.49,2.8,1.46,5.59,3.05,8.14,4.99,2.57,1.91,5.04,4.02,7.27,6.4,1.16,1.15,2.17,2.43,3.24,3.67l1.48,1.96.74.99.68,1.03c1.88,2.72,3.4,5.68,4.81,8.71.63,1.54,1.32,3.08,1.82,4.68.56,1.59,1.06,3.2,1.46,4.84,1.65,6.56,2.18,13.52,1.49,20.44v.12c-.36,3.45-3.44,5.97-6.89,5.62s-5.97-3.42-5.62-6.88c.03-.35.11-.72.19-1.04,1.47-5.33,2.02-10.99,1.58-16.69-.11-1.43-.3-2.85-.54-4.26-.19-1.43-.56-2.83-.87-4.25-.76-2.79-1.64-5.59-2.89-8.25l-.44-1.01-.5-.98-1.02-1.97c-.77-1.26-1.48-2.58-2.36-3.78-1.65-2.5-3.58-4.81-5.68-7-2.07-2.22-4.44-4.16-6.9-6.01-2.48-1.82-5.16-3.39-7.94-4.82Z"/>
      <path class="cls-1" d="M85.54,102.42c7.01,3.73,13.27,8.82,18.26,14.87,5,6.05,8.75,13.04,11.01,20.43,2.26,7.39,3.04,15.17,2.3,22.76-.72,7.59-2.98,14.97-6.49,21.59-.75,1.4-2.49,1.94-3.89,1.19-1.33-.71-1.88-2.31-1.3-3.67v-.03c2.69-6.21,4.13-12.88,4.23-19.52.11-6.64-1.12-13.24-3.52-19.31-2.42-6.07-6.01-11.61-10.48-16.2-4.47-4.6-9.81-8.25-15.61-10.76-3.2-1.38-4.67-5.1-3.29-8.3s5.1-4.67,8.3-3.29c.15.07.3.14.45.21l.04.02Z"/>
      <path class="cls-1" d="M103.95,97.03c-2.82.07-5.68-.17-8.46-.86-2.76-.75-5.45-1.84-7.95-3.33-2.46-1.54-4.73-3.41-6.73-5.57-1.95-2.21-3.58-4.7-4.88-7.38-1.25-2.71-2.07-5.62-2.55-8.6-.38-2.99-.38-6.05.05-9.08.51-3.01,1.39-5.99,2.73-8.79,1.38-2.77,3.13-5.37,5.23-7.71,2.15-2.28,4.62-4.28,7.33-5.92,2.74-1.6,5.74-2.78,8.86-3.58,3.14-.73,6.37-1,9.62-.86,3.24.24,6.48.86,9.58,1.99,3.07,1.18,6.01,2.76,8.68,4.75,2.63,2.04,4.99,4.44,7,7.14,1.97,2.74,3.53,5.77,4.68,8.98,1.11,3.23,1.69,6.63,1.89,10.06.2,3.49-2.46,6.48-5.95,6.68-3.49.2-6.48-2.46-6.68-5.95-.01-.18-.01-.36,0-.54v-.19c.07-2.21-.07-4.44-.58-6.63-.56-2.16-1.39-4.29-2.53-6.27-1.19-1.95-2.64-3.76-4.33-5.36-1.73-1.55-3.68-2.87-5.79-3.93-2.13-1.02-4.42-1.68-6.79-2.1-2.38-.32-4.82-.35-7.24-.04-2.4.39-4.78,1.06-7.03,2.1-2.22,1.08-4.32,2.47-6.22,4.13-1.84,1.71-3.47,3.68-4.82,5.85-1.31,2.2-2.27,4.6-2.95,7.1-.61,2.52-.85,5.14-.77,7.78.18,2.62.65,5.25,1.54,7.77.94,2.5,2.2,4.89,3.79,7.09,1.65,2.15,3.59,4.09,5.78,5.76,2.22,1.62,4.69,2.91,7.3,3.89,2.63.92,5.41,1.42,8.23,1.62Z"/>
      <path class="cls-1" d="M104.86,61.9c-2.11,1.53-3.81,3.55-4.91,5.83-1.05,2.3-1.6,4.82-1.41,7.29.04,1.23.34,2.44.67,3.6.41,1.14.89,2.26,1.56,3.26.62,1.03,1.44,1.92,2.27,2.75.89.77,1.82,1.51,2.86,2.03,2.04,1.13,4.36,1.65,6.62,1.64,2.27-.01,4.47-.67,6.38-1.73l3.27-2.08c1.27-.67,2.55-1.37,3.92-1.83,2.71-1.02,5.61-1.66,8.56-1.73,2.94-.1,5.91.26,8.79,1.08,2.88.8,5.61,2.16,8.11,3.87,2.5,1.72,4.76,3.84,6.57,6.32,1.81,2.46,3.35,5.2,4.31,8.17.97,2.96,1.49,6.1,1.51,9.26.04,3.16-.53,6.33-1.52,9.37-1.01,3.03-2.46,5.97-4.45,8.55-1.96,2.59-4.34,4.89-7.01,6.79-2.89,2.06-6.91,1.39-8.97-1.51s-1.39-6.91,1.51-8.97c.18-.13.36-.24.54-.35h.02c1.68-.96,3.22-2.15,4.57-3.56,1.37-1.4,2.43-3.1,3.27-4.92.82-1.82,1.43-3.79,1.61-5.83.2-2.03.09-4.11-.34-6.15-.41-2.05-1.27-4-2.34-5.85-1.06-1.86-2.49-3.51-4.13-4.91-1.65-1.4-3.52-2.62-5.58-3.43-2.06-.82-4.26-1.33-6.52-1.5-2.26-.19-4.55.08-6.77.66-1.13.25-2.19.7-3.27,1.13l-3.52,1.76c-2.76,1.19-5.79,1.72-8.71,1.43-2.92-.29-5.75-1.27-8.11-2.91-1.21-.78-2.25-1.78-3.21-2.82-.9-1.1-1.74-2.24-2.34-3.51-.66-1.24-1.08-2.58-1.41-3.92-.25-1.36-.44-2.74-.34-4.11.08-2.74.96-5.39,2.31-7.68,1.39-2.28,3.37-4.15,5.61-5.45Z"/>
    </g>
  </g>
  <g>
    <path class="cls-1" d="M66.82,220.77l-1.88,3.72v2.62h-1.22v-2.58l-1.8-3.76h1.36l.63,1.56c.18.45.33.85.48,1.29h.02c.12-.42.28-.83.46-1.29l.61-1.55h1.34Z"/>
    <path class="cls-1" d="M73.88,227.11h-1.28l-.45-1.67h-1.7l-.44,1.67h-1.24l1.8-6.34h1.53l1.77,6.34ZM71.98,224.51l-.38-1.44c-.1-.4-.21-.91-.29-1.29h-.03c-.08.4-.19.91-.28,1.29l-.38,1.45h1.35Z"/>
    <path class="cls-1" d="M81.3,227.11h-1.39l-1.47-2.8-.47.63v2.17h-1.21v-6.34h1.21v2.87h.02c.13-.25.27-.49.4-.73l1.36-2.14h1.45l-1.91,2.71,2,3.63Z"/>
    <path class="cls-1" d="M83.95,220.77h1.22v6.34h-1.22v-6.34Z"/>
    <path class="cls-1" d="M93.08,227.11h-1.22l-1.36-2.62c-.34-.65-.71-1.43-.97-2.13h-.03c.05.78.07,1.67.07,2.8v1.94h-1.1v-6.34h1.32l1.33,2.57c.34.63.69,1.41.95,2.07h.02c-.07-.81-.11-1.71-.11-2.74v-1.9h1.1v6.34Z"/>
    <path class="cls-1" d="M96.38,220.77h1.22v6.34h-1.22v-6.34Z"/>
    <path class="cls-1" d="M105.43,227.11h-1.39l-1.47-2.8-.47.63v2.17h-1.21v-6.34h1.21v2.87h.02c.13-.25.27-.49.4-.73l1.36-2.14h1.45l-1.91,2.71,2,3.63Z"/>
    <path class="cls-1" d="M112.61,224.48c0,1.85-.88,2.72-2.32,2.72s-2.23-.85-2.23-2.71v-3.72h1.22v3.83c0,1.11.42,1.6,1.05,1.6.66,0,1.06-.47,1.06-1.6v-3.83h1.22v3.72Z"/>
    <path class="cls-1" d="M124.72,223.58c-.14.92-.44,1.75-.94,2.34.3.35.63.74,1.02,1.19h-1.39c-.13-.15-.26-.28-.42-.49-.41.36-.96.58-1.63.58-1.33,0-1.99-.86-1.99-1.78,0-.82.45-1.4,1.14-1.8v-.03c-.3-.36-.48-.84-.48-1.29,0-.81.58-1.62,1.71-1.62.87,0,1.53.55,1.53,1.43,0,.63-.32,1.17-1.23,1.67v.04c.36.45.8,1,1.13,1.38.26-.43.4-1.04.47-1.61h1.08ZM122.44,225.92c-.38-.43-.91-1.06-1.4-1.67-.26.21-.53.52-.53.98,0,.58.4,1.07,1.04,1.07.34,0,.67-.12.89-.38ZM121.1,222.19c0,.36.15.66.41.98.48-.32.72-.62.72-1.02,0-.32-.16-.68-.54-.68s-.58.37-.58.73Z"/>
    <path class="cls-1" d="M135.2,221.83h-1.57v5.28h-1.22v-5.28h-1.56v-1.05h4.34v1.05Z"/>
    <path class="cls-1" d="M142.57,227.11h-1.22v-2.73h-2.16v2.73h-1.22v-6.34h1.22v2.53h2.16v-2.53h1.22v6.34Z"/>
    <path class="cls-1" d="M150.5,227.11h-1.28l-.45-1.67h-1.7l-.44,1.67h-1.24l1.8-6.34h1.53l1.77,6.34ZM148.6,224.51l-.38-1.44c-.1-.4-.21-.91-.29-1.29h-.03c-.08.4-.19.91-.28,1.29l-.38,1.45h1.35Z"/>
    <path class="cls-1" d="M153.38,220.77h1.22v6.34h-1.22v-6.34Z"/>
    <path class="cls-1" d="M164.69,224.12c.44.17.69.6.84,1.24.18.75.35,1.51.47,1.75h-1.25c-.09-.18-.25-.73-.4-1.5-.17-.82-.42-1.07-1-1.07h-.41v2.57h-1.21v-6.25c.42-.07,1.01-.13,1.63-.13.8,0,2.42.1,2.42,1.8,0,.77-.5,1.34-1.09,1.57v.02ZM163.45,223.63c.69,0,1.11-.4,1.11-1,0-.82-.61-.97-1.05-.97-.27,0-.46.02-.56.05v1.93h.5Z"/>
    <path class="cls-1" d="M172.39,227.11h-3.54v-6.34h3.41v1.02h-2.19v1.53h2.07v1h-2.07v1.76h2.32v1.02Z"/>
    <path class="cls-1" d="M178.47,221.97c-.22-.12-.61-.27-1.13-.27-.64,0-.93.35-.93.7,0,.45.31.66,1.09,1.01,1.01.45,1.47,1.04,1.47,1.87,0,1.1-.83,1.91-2.31,1.91-.63,0-1.26-.17-1.56-.35l.24-1.02c.33.2.86.35,1.37.35.68,0,1.03-.32,1.03-.79s-.3-.72-1-1.03c-.96-.41-1.55-1-1.55-1.83,0-1.04.82-1.84,2.18-1.84.6,0,1.06.14,1.36.29l-.25,1Z"/>
    <path class="cls-1" d="M185.79,221.83h-1.57v5.28h-1.22v-5.28h-1.56v-1.05h4.34v1.05Z"/>
    <path class="cls-1" d="M193.03,227.11h-1.28l-.45-1.67h-1.7l-.44,1.67h-1.24l1.8-6.34h1.53l1.77,6.34ZM191.13,224.51l-.38-1.44c-.1-.4-.21-.91-.29-1.29h-.03c-.08.4-.19.91-.28,1.29l-.38,1.45h1.35Z"/>
    <path class="cls-1" d="M200.45,224.48c0,1.85-.88,2.72-2.31,2.72s-2.23-.85-2.23-2.71v-3.72h1.22v3.83c0,1.11.42,1.6,1.05,1.6.66,0,1.06-.47,1.06-1.6v-3.83h1.22v3.72Z"/>
    <path class="cls-1" d="M206.68,224.12c.45.17.69.6.84,1.24.18.75.35,1.51.47,1.75h-1.25c-.09-.18-.25-.73-.4-1.5-.17-.82-.42-1.07-1-1.07h-.41v2.57h-1.21v-6.25c.42-.07,1.01-.13,1.63-.13.8,0,2.42.1,2.42,1.8,0,.77-.5,1.34-1.09,1.57v.02ZM205.43,223.63c.69,0,1.11-.4,1.11-1,0-.82-.61-.97-1.05-.97-.27,0-.46.02-.56.05v1.93h.5Z"/>
    <path class="cls-1" d="M215.47,227.11h-1.28l-.45-1.67h-1.7l-.44,1.67h-1.24l1.8-6.34h1.53l1.77,6.34ZM213.57,224.51l-.38-1.44c-.1-.4-.21-.91-.29-1.29h-.03c-.08.4-.19.91-.28,1.29l-.38,1.45h1.35Z"/>
    <path class="cls-1" d="M222.97,227.11h-1.22l-1.36-2.62c-.34-.65-.71-1.43-.97-2.13h-.03c.05.78.07,1.67.07,2.8v1.94h-1.1v-6.34h1.32l1.33,2.57c.34.63.69,1.41.95,2.07h.02c-.07-.81-.11-1.71-.11-2.74v-1.9h1.1v6.34Z"/>
    <path class="cls-1" d="M230.1,221.83h-1.57v5.28h-1.22v-5.28h-1.56v-1.05h4.34v1.05Z"/>
  </g>
  <g>
    <path class="cls-1" d="M67.89,213.5h-6.94c.83-.67,1.07-1.07,1.07-2.38v-13.37c0-1.15-.44-2.02-1.07-2.38h6.47c3.41,0,5.79,1.71,5.79,4.32,0,1.51-1.11,3.01-2.54,3.45,3.25,1.07,4.32,2.58,4.32,5,0,3.17-2.66,5.36-7.1,5.36ZM69.99,199.93c-.36-2.22-1.03-2.62-4.96-2.62v5.4c.12,0,.75.08.95.08,2.5,0,4.01-.91,4.01-2.38v-.48ZM71.73,208.14c0-2.3-1.87-3.61-5.2-3.53l-1.51.04v6.71c.24,0,1.35-.04,2.26.2h.36c2.74,0,4.09-.91,4.09-3.05v-.36Z"/>
    <path class="cls-1" d="M88,213.5h-11.43c.87-.59,1.31-1.35,1.31-2.38v-13.37c-.04-1.35-.32-1.39-.63-1.82l-.44-.56h5.36l-.52.52c-.6.59-.79,1.15-.79,2.1v13.13c.36,0,2.46.36,3.77.36,1.82,0,3.25-.44,4.92-1.63l-1.55,3.65Z"/>
    <path class="cls-1" d="M103.91,213.5v-1.75c-1.87,1.86-2.78,2.14-5.2,2.14-4.13,0-6.71-2.3-6.71-6.19v-10.04c0-.99-.32-1.55-1.07-2.3h4.92c-.36.36-.87,1.51-.87,2.3v9.6c0,2.82,1.47,4.48,4.13,4.48s4.8-1.9,4.8-4.32v-9.56c0-1.27-.08-1.59-1.35-2.5h5.2c-.91.91-1.07,1.23-1.07,2.5v13.05c0,1.27.2,2.18,1.27,2.58h-4.05Z"/>
    <path class="cls-1" d="M121.21,213.5h-11.19c.79-.87,1.07-1.43,1.07-2.38v-12.74c0-1.71-.24-2.38-1.07-3.01h9.52c.16-.04.36-.12.59-.24v3.45c-.71-.87-2.02-1.11-3.97-1.11-.24-.04-.63.04-1.15.04h-1.15v5.2h3.73c.28,0,.56-.08.79-.2v2.98c-.44-.59-1.39-.83-2.58-.83h-1.94v6.47c2.58.24,2.78.44,3.85.44,1.98,0,3.45-.48,5-1.71l-1.51,3.65Z"/>
    <path class="cls-1" d="M152.12,209.85l-1.07,3.21c-1.39.52-2.9.75-4.52.75-5.91,0-10.36-3.57-10.36-8.73,0-6.59,3.37-10.12,9.48-10.12,1.63,0,3.37.2,5.16.63v3.21c-1.59-.99-3.33-1.51-5.4-1.51-3.65,0-6.03,2.62-6.03,6.43,0,4.21,2.9,7.66,6.94,7.66h.6c1.11-.04,2.22-.2,3.37-.67l.67-.28,1.15-.59Z"/>
    <path class="cls-1" d="M166.28,213.5c.83-.32,1.35-1.03,1.35-2.38v-6.27h-9.96v6.07c0,1.03.44,1.9,1.27,2.58h-5.36c.87-.4,1.31-1.43,1.31-2.58v-12.34c0-1.9-.28-2.62-1.07-3.21h5.12c-.83.44-1.27,1.47-1.27,3.01v4.32h9.96v-4.56c0-1.35-.63-2.42-1.55-2.78h5.63l-.63.63c-.48.48-.67,1.27-.67,2.14v12.97c0,1.31.28,1.67,1.31,2.38h-5.43Z"/>
    <path class="cls-1" d="M187.27,213.5c.75-.4.99-.75.99-1.31,0-.44-.28-1.07-.36-1.27l-1.79-4.36h-6.67l-1.71,4.8c-.08.2-.2.63-.2.75,0,.32.16.6.48.87l.28.28c.08.08.16.16.28.24h-5.36c1.27-.95,2.1-1.98,2.38-3.01l5.16-13.17c.08-.36.16-.67.16-.75,0-.56-.32-.83-.75-1.19h4.25l6.47,15.55c.56.99,1.35,1.82,2.18,2.58h-5.79ZM185.28,204.65l-2.58-6.67-2.54,6.67h5.12Z"/>
    <path class="cls-1" d="M212.5,195.37c-.87.56-1.71.75-1.71,2.82v16.19c-.36,0-1.03-.28-1.51-.63l-.83-.59c-.28-.24-.48-.48-.67-.71l-10.39-13.17v11.43c0,1.59.44,2.14,1.51,2.82h-5.12c.36-.28.63-.52.83-.67l.24-.2c.28-.36.52-.91.63-1.71v-12.3c0-1.19-.12-2.02-.79-2.54l-.91-.71h4.09l10.99,14.04v-11.03c0-1.79-.55-2.78-1.71-3.01h5.36Z"/>
    <path class="cls-1" d="M225.47,213.86c-7.3,0-11.86-3.53-11.86-9.48.59-6.07,4.76-9.32,11.27-9.32,1.27,0,2.98.24,4.48.52v3.17c-1.35-1.07-3.05-1.67-4.84-1.67-4.05,0-7.54,3.09-7.54,7.02l.04.48c0,4.56,3.41,7.3,8.21,7.3,1.27,0,2.42-.2,3.25-.6v-4.05c0-1.79-.28-2.5-1.27-3.05h4.29c-.24.32-.24.59-.24,1.9v6.35c.04.16.12.36.24.55-1.94.56-4.01.87-6.03.87Z"/>
  </g>
</svg>